<svg xmlns="http://www.w3.org/2000/svg" enable-background="new 0 0 500 500" viewBox="0 0 64 64">
	<path fill="rgb(52, 73, 94)" d="M61.891,60.629c-3.454-8.662-4.729-15.006-4.916-24.639c0.246-0.013,0.482-0.108,0.657-0.283
		c0.188-0.188,0.293-0.442,0.293-0.707l0-4c0-0.552-0.448-1-1-1H43.05c-0.015-0.654-0.027-1.325-0.036-2.003
		C43.56,27.989,44,27.547,44,27v-4c0-0.552-0.448-1-1-1H21c-0.552,0-1,0.448-1,1v4c0,0.547,0.44,0.989,0.985,0.997
		c-0.009,0.678-0.021,1.349-0.036,2.003H7c-0.552,0-1,0.448-1,1v4c0,0.534,0.422,0.962,0.95,0.99
		c-0.187,9.633-1.463,15.978-4.917,24.64c-0.123,0.308-0.085,0.657,0.101,0.932S2.63,62,2.962,62H16.98
		c0.004,0,0.008-0.002,0.012-0.002C16.995,61.998,16.997,62,17,62h29.944H47h13.962c0.332,0,0.642-0.165,0.828-0.439
		S62.014,60.938,61.891,60.629z M55.924,32l0,2H43.19c-0.032-0.655-0.059-1.323-0.083-2H55.924z M22,24h20v2H22V24z M8,32h12.891
		c-0.024,0.676-0.052,1.342-0.084,2H8V32z M8.954,36h11.727c-0.533,8.26-1.846,15.342-4.442,24H4.427
		C7.583,51.759,8.774,45.41,8.954,36z M22.989,28h18.021c0.012,0.908,0.031,1.788,0.054,2.655C41.021,30.774,40.997,30.9,41,31.029
		c0.04,1.38,0.096,2.72,0.169,4.027c0.001,0.026,0.015,0.047,0.018,0.072c0.49,8.664,1.794,15.984,4.422,24.872H18.344
		C21.614,48.954,22.824,40.589,22.989,28z M47.746,60c-2.576-8.592-3.898-15.505-4.442-24h11.667c0.179,9.409,1.37,15.758,4.526,24
		H47.746z" />
	<path fill="rgb(52, 73, 94)" d="M32,40c-4.962,0-9,4.038-9,9s4.038,9,9,9s9-4.038,9-9S36.962,40,32,40z M33,55.92v-5.127c0.254,0.03,0.529,0.05,0.819,0.05
		c0.635,0,1.328-0.094,1.955-0.384c1.843-0.852,2.199-2.946,2.213-3.035c0.079-0.491-0.216-0.966-0.691-1.113
		c-0.241-0.074-2.392-0.705-4.071,0.073c-0.937,0.433-1.487,1.186-1.806,1.835c-0.192-0.146-0.405-0.28-0.645-0.391
		c-1.68-0.777-3.832-0.147-4.071-0.073c-0.475,0.147-0.77,0.622-0.691,1.113c0.014,0.089,0.37,2.183,2.212,3.035
		c0.628,0.29,1.321,0.384,1.956,0.384c0.29,0,0.565-0.021,0.819-0.05v3.683c-3.387-0.488-6-3.401-6-6.92c0-3.86,3.14-7,7-7
		s7,3.14,7,7C39,52.519,36.387,55.432,33,55.92z M33.369,48.82c0.163-0.244,0.388-0.479,0.696-0.622
		c0.447-0.207,1.041-0.226,1.567-0.177c-0.163,0.244-0.388,0.479-0.696,0.622C34.489,48.85,33.896,48.869,33.369,48.82z
		 M30.631,50.264c-0.524,0.049-1.121,0.03-1.566-0.176c-0.308-0.143-0.533-0.377-0.695-0.621c0.524-0.047,1.121-0.03,1.566,0.176
		C30.244,49.785,30.469,50.02,30.631,50.264z" />
	<rect fill="rgb(52, 73, 94)" width="2" height="2" x="25" y="30" />
	<rect fill="rgb(52, 73, 94)" width="2" height="2" x="16" y="38" />
	<rect fill="rgb(52, 73, 94)" width="2" height="2" x="12" y="38" />
	<rect fill="rgb(52, 73, 94)" width="2" height="2" x="50" y="38" />
	<rect fill="rgb(52, 73, 94)" width="2" height="2" x="46" y="38" />
	<rect fill="rgb(52, 73, 94)" width="2" height="2" x="29" y="30" />
	<rect fill="rgb(52, 73, 94)" width="2" height="2" x="33" y="30" />
	<rect fill="rgb(52, 73, 94)" width="2" height="2" x="37" y="30" />
	<path fill="rgb(52, 73, 94)" d="M34 17c0 1.654 1.346 3 3 3s3-1.346 3-3-1.346-3-3-3S34 15.346 34 17zM37 16c.551 0 1 .449 1 1s-.449 1-1 1-1-.449-1-1S36.449 16 37 16zM15 13c1.654 0 3-1.346 3-3s-1.346-3-3-3-3 1.346-3 3S13.346 13 15 13zM15 9c.551 0 1 .449 1 1s-.449 1-1 1-1-.449-1-1S14.449 9 15 9zM47 23c0 1.654 1.346 3 3 3s3-1.346 3-3-1.346-3-3-3S47 21.346 47 23zM50 22c.551 0 1 .449 1 1s-.449 1-1 1-1-.449-1-1S49.449 22 50 22zM32 10c1.654 0 3-1.346 3-3s-1.346-3-3-3-3 1.346-3 3S30.346 10 32 10zM32 6c.551 0 1 .449 1 1s-.449 1-1 1-1-.449-1-1S31.449 6 32 6zM12 28c1.654 0 3-1.346 3-3s-1.346-3-3-3-3 1.346-3 3S10.346 28 12 28zM12 24c.551 0 1 .449 1 1s-.449 1-1 1-1-.449-1-1S11.449 24 12 24zM58 20c1.654 0 3-1.346 3-3s-1.346-3-3-3-3 1.346-3 3S56.346 20 58 20zM58 16c.551 0 1 .449 1 1s-.449 1-1 1-1-.449-1-1S57.449 16 58 16zM45.758 13.993C45.84 13.998 45.922 14 46.003 14c2.096 0 3.862-1.639 3.99-3.758.133-2.201-1.549-4.101-3.75-4.235-2.205-.128-4.101 1.549-4.235 3.75C41.874 11.959 43.557 13.859 45.758 13.993zM45.999 8c.041 0 .081.001.122.003 1.101.067 1.942 1.017 1.875 2.118-.032.533-.271 1.022-.67 1.376-.4.354-.915.528-1.447.5-1.101-.067-1.942-1.017-1.876-2.118C44.068 8.819 44.951 8 45.999 8zM23.758 18.993C23.84 18.998 23.921 19 24.002 19c2.096 0 3.862-1.638 3.991-3.758.133-2.201-1.549-4.101-3.751-4.235-2.194-.132-4.101 1.55-4.234 3.75C19.874 16.959 21.557 18.859 23.758 18.993zM22.674 13.503C23.042 13.176 23.508 13 23.997 13c.041 0 .082.001.124.003 1.101.067 1.942 1.017 1.876 2.118-.067 1.101-1.01 1.945-2.118 1.875-1.101-.067-1.942-1.017-1.875-2.118C22.036 14.346 22.274 13.857 22.674 13.503z" />
</svg>
