<svg xmlns="http://www.w3.org/2000/svg" data-name="Layer 1" viewBox="0 0 512 512">
	<path fill="rgb(52,73,94)" enable-background="new 0 0 512 512" d="M485.31055,213.24652a114.52946,114.52946,0,0,0,20.92675-109.7182,7.5,7.5,0,0,0-4.78222-4.78223,115.24242,115.24242,0,0,0-137.78174,55.47943A115.25348,115.25348,0,0,0,225.88965,98.74609a7.50032,7.50032,0,0,0-4.78223,4.78174,115.33724,115.33724,0,0,0-4.7041,52.20508,296.06827,296.06827,0,0,1-33.33887-30.92725c-15.49072-16.89465-30.70312-34.4356-45.30371-52.21142a25.50038,25.50038,0,0,0-36.9541-35.12549L7.46973,130.80664a25.49933,25.49933,0,0,0,35.08935,36.984c17.34766,14.44641,34.49585,29.45367,51.04541,44.6908.18311.1687.36988.34838.55347.51855H30.5a30.49772,30.49772,0,0,0-8,59.9281V290.5c0,86.18066,60.04834,158.59277,140.5,177.61432V474.5A37.54227,37.54227,0,0,0,200.5,512h111A37.54227,37.54227,0,0,0,349,474.5v-6.38568C429.45166,449.09277,489.5,376.68066,489.5,290.5V272.9281a30.493,30.493,0,0,0-4.18945-59.68158Zm-90.65723-75.955a99.63174,99.63174,0,0,1,98.46094-25.42285,
    99.63153,99.63153,0,0,1-25.42285,98.45947c-.91309.913-1.8479,1.80042-2.78809,2.67188H404.86255l47.6355-44.66064A7.5,7.5,0,1,0,442.23828,157.397L382.93164,213h-6.04346a114.91187,114.91187,0,0,0-5.26928-39.89288A99.08888,99.08888,0,0,1,394.65332,137.2915ZM234.23047,111.86865a100.229,100.229,0,0,1,122.18359,63.079,7.49913,7.49913,0,0,0,.30542.91A99.91786,99.91786,0,0,1,361.87744,213h-17.4646l-59.30639-55.603a7.5,7.5,0,1,0-10.25977,10.94239L322.48193,213H262.44116c-.94482-.87561-1.8811-1.76422-2.78784-2.6709a100.17342,100.17342,0,0,1-23.70972-37.55322,7.49506,7.49506,0,0,0-.52319-1.50336A99.7809,99.7809,0,0,1,234.23047,111.86865ZM32.92383,156.2627a10.4994,10.4994,0,1,1-14.84766-14.84913L111.41406,48.0752A10.49991,10.49991,0,0,1,126.2627,62.9248l-3.88526,3.88514-.00439.004L79.59326,109.59375Zm20.31738.89654,73.87817-73.87732c14.47925,17.58637,29.55445,34.93543,44.88843,51.66046,
    13.91992,15.18311,29.94727,29.26929,50.27442,44.19165A114.82115,114.82115,0,0,0,241.82617,213H115.59106c-3.98071-4.09808-7.9519-7.98627-11.82641-11.55371C87.376,186.3584,70.41016,171.48688,53.24121,157.15924ZM334,474.5A22.52554,22.52554,0,0,1,311.5,497h-111A22.52554,22.52554,0,0,1,178,474.5v-3.50061A183.17974,183.17974,0,0,0,205,473H307a183.17974,183.17974,0,0,0,27-2.00061Zm140.5-184C474.5,382.85986,399.35938,458,307,458H205c-92.35938,0-167.5-75.14014-167.5-167.5V274h437Zm7-31.5H30.5a15.5,15.5,0,0,1,0-31h451a15.5,15.5,0,0,1,0,31ZM307,433A142.49948,142.49948,0,0,0,448.50586,307.3833a7.50043,7.50043,0,0,0-14.89648-1.7666A127.493,127.493,0,0,1,307,418a7.5,7.5,0,0,0,0,15Z" />
</svg>
