<svg xmlns="http://www.w3.org/2000/svg" viewBox="0 0 512 512">
	<path fill="rgb(52,73,94)" d="M508.32,1.05A7.5,7.5,0,0,0,500.9.92C440.22,34.13,378,32.42,336.48,25.14c-45.37-8-76.69-24.12-77-24.29a7.49,7.49,0,0,0-7,0C252.21,1,221.28,17,176,25.05,134.36,32.43,72,34.23,11.1.92A7.5,7.5,0,0,0,0,7.5v65A507.19,507.19,0,0,0,252.23,511a7.48,7.48,0,0,0,7.54,0A507.85,507.85,0,0,0,444.44,325.45,507.86,507.86,0,0,0,512,72.54V7.5A7.5,7.5,0,0,0,508.32,1.05ZM497,72.54c0,173.19-92.23,335-241,423.26C107.23,407.5,15,245.73,15,72.54V19.79c61.05,29.46,122.13,27.38,163.62,20,39.16-6.93,67.77-19.39,77.38-24,9.61,4.57,38.22,17,77.38,24C374.87,47.17,436,49.24,497,19.79Z" />
	<path fill="rgb(52,73,94)" d="M256,98.5A127.5,127.5,0,1,0,383.5,226,127.65,127.65,0,0,0,256,98.5Zm0,240A112.5,112.5,0,1,1,368.5,226,112.63,112.63,0,0,1,256,338.5Z" />
	<path fill="rgb(52,73,94)" d="M320.51,175.89,242.29,260l-30.8-33.12a7.5,7.5,0,1,0-11,10.22l36.29,39a7.5,7.5,0,0,0,11,0l83.71-90a7.5,7.5,0,1,0-11-10.22Z" />
</svg>
