<svg xmlns="http://www.w3.org/2000/svg" data-name="Layer 1" viewBox="0 0 512 512"><path d="M375.16,13H136.84a8.273,8.273,0,0,0-7.97,8.947l24.152,276.141a228.293,228.293,0,0,0,12.355,56.653L187.791,415.1c.015.04.209.086.209.125v75.446c0,4.418,3.269,8.333,7.688,8.333H316.131c4.418,0,7.869-3.915,7.869-8.333V415.616c0-.171.234-.332.3-.51l22.322-60.431a228.033,228.033,0,0,0,12.339-56.545l24.161-276.1a8.378,8.378,0,0,0-2.068-6.269A8.156,8.156,0,0,0,375.16,13Zm-8.73,16-4.574,53H150.144L145.57,29ZM235,483V467h42v16Zm58,0V458.661A7.84,7.84,0,0,0,284.859,451H227.141A7.84,7.84,0,0,0,219,458.661V483H204V420H308v63Zm50.039-186.075a209.86,209.86,0,0,1-11.427,52.226L311.284,404H200.716l-20.3-54.858a209.951,209.951,0,0,1-11.458-52.3L151.543,98H360.457Z"/><path d="M301,139a8,8,0,0,0-8-8H213a8,8,0,0,0-8,8V346a8,8,0,0,0,8,8h80a8,8,0,0,0,8-8ZM285,338H221V147h64Z"/></svg>