<svg xmlns="http://www.w3.org/2000/svg" id="Layer_1" x="0" y="0" enable-background="new 0 0 32 32" version="1.1" viewBox="0 0 32 32" xml:space="preserve"><path id="path7" fill="#000" stroke="none" d="M 16 1.9941406 C 15.274 1.9941406 14.685437 2.4701875 14.523438 3.2421875 L 14.039062 9.0058594 L 13 9.0058594 C 12.724 9.0058594 12.5 9.2298594 12.5 9.5058594 L 12.5 12.005859 L 11.5 12.005859 C 10.121 12.005859 9 13.127859 9 14.505859 L 9 16.505859 L 9 25.505859 L 9 27.505859 C 9 28.883859 10.121 30.005859 11.5 30.005859 L 20.5 30.005859 C 21.879 30.005859 23 28.883859 23 27.505859 L 23 25.505859 L 23 16.505859 L 23 14.505859 C 23 13.127859 21.879 12.005859 20.5 12.005859 L 19.5 12.005859 L 19.5 9.5058594 C 19.5 9.2298594 19.276 9.0058594 19 9.0058594 L 17.958984 9.0058594 L 17.466797 3.1796875 C 17.313797 2.4696875 16.726 1.9941406 16 1.9941406 z M 16 2.9941406 C 16.095 2.9941406 16.409516 3.0211716 16.478516 3.3261719 L 16.955078 9.0078125 L 15.042969 9.0078125 L 15.511719 3.3886719 C 15.589719 3.0216719 15.905 2.9941406 16 2.9941406 z M 13.5 10.005859 L 14.5 10.005859 L 14.521484 10.005859 L 14.5 10.996094 C 14.494 11.272094 14.713281 11.499859 14.988281 11.505859 L 15 11.505859 C 15.271 11.505859 15.494 11.288625 15.5 11.015625 L 15.521484 10.005859 L 16.521484 10.005859 L 16.5 10.996094 C 16.494 11.272094 16.713281 11.499859 16.988281 11.505859 L 17 11.505859 C 17.271 11.505859 17.494 11.288625 17.5 11.015625 L 17.521484 10.005859 L 18.5 10.005859 L 18.5 12.005859 L 13.5 12.005859 L 13.5 10.005859 z M 11.5 13.005859 L 13 13.005859 L 19 13.005859 L 20.5 13.005859 C 21.327 13.005859 22 13.678859 22 14.505859 L 22 16.005859 L 10 16.005859 L 10 14.505859 C 10 13.678859 10.673 13.005859 11.5 13.005859 z M 10 17.005859 L 22 17.005859 L 22 25.005859 L 10 25.005859 L 10 17.005859 z M 16 18.091797 C 15.872 18.091797 15.743984 18.140781 15.646484 18.238281 L 14.232422 19.652344 C 13.257422 20.627344 13.257422 22.214453 14.232422 23.189453 C 14.719422 23.676453 15.359 23.919922 16 23.919922 C 16.64 23.919922 17.279578 23.676453 17.767578 23.189453 C 18.742578 22.214453 18.742578 20.627344 17.767578 19.652344 L 16.353516 18.238281 C 16.256016 18.140781 16.128 18.091797 16 18.091797 z M 16 19.298828 L 17.060547 20.359375 C 17.645547 20.944375 17.645547 21.897422 17.060547 22.482422 C 16.476547 23.066422 15.523453 23.066422 14.939453 22.482422 C 14.354453 21.897422 14.354453 20.944375 14.939453 20.359375 L 16 19.298828 z M 10 26.005859 L 22 26.005859 L 22 27.505859 C 22 28.332859 21.327 29.005859 20.5 29.005859 L 11.5 29.005859 C 10.673 29.005859 10 28.332859 10 27.505859 L 10 26.005859 z "/></svg>